# xmcd
# Track frame offsets:
# 150
# 13680
# 23086
# 36026
# 50296
# 63269
# 75304
# 91919
# 104101
# 118211
# 132487
# 144635
# 154583
# 166320
# 181668
# 196442
#
# Disc length: 2779 seconds
# Revision: 0
# Processed by: cddbd v1.4PL0 Copyright (c) Steve Scherf et al.
# Submitted via: VisiTrax 2.9.5.181 - For more info visit www.synapsa.com
#
DISCID=ce0ad910
DTITLE=Don Williams - Don't You Believe
DYEAR=1900
DGENRE=
TTITLE0=Shelter Of Your Eyes
TTITLE1=Too Late To Turn Back Now
TTITLE2=Atta Way To Go
TTITLE3=Down The Road I Go
TTITLE4=Loving You So Long Now
TTITLE5=Miller's Cove
TTITLE6=Oh Misery
TTITLE7=Your Sweet Love
TTITLE8=Amanda
TTITLE9=Come Early Morning
TTITLE10=Don't You Believe
TTITLE11=Endless Sleep
TTITLE12=How Much Time Does It Take
TTITLE13=I Recall A Gypsy Woman
TTITLE14=My Woman's Love
TTITLE15=No Use Running
EXTD=
EXTT0=
EXTT1=
EXTT2=
EXTT3=
EXTT4=
EXTT5=
EXTT6=
EXTT7=
EXTT8=
EXTT9=
EXTT10=
EXTT11=
EXTT12=
EXTT13=
EXTT14=
EXTT15=
PLAYORDER=
